<?xml version="1.0" standalone="no"?>
<!DOCTYPE svg PUBLIC "-//W3C//DTD SVG 20010904//EN"
 "http://www.w3.org/TR/2001/REC-SVG-20010904/DTD/svg10.dtd">
<svg version="1.0" xmlns="http://www.w3.org/2000/svg"
 width="192.000000pt" height="192.000000pt" viewBox="0 0 192.000000 192.000000"
 preserveAspectRatio="xMidYMid meet">
<metadata>
Created by potrace 1.11, written by Peter Selinger 2001-2013
</metadata>
<g transform="translate(0.000000,192.000000) scale(0.100000,-0.100000)"
fill="#000000" stroke="none">
<path d="M906 1891 c-29 -30 -47 -32 -86 -11 -34 18 -42 -1 -18 -45 26 -50 38
-92 31 -110 -3 -8 -20 -24 -38 -35 -35 -21 -48 -57 -32 -85 6 -12 6 -20 -2
-25 -20 -11 14 -32 53 -32 19 0 39 3 45 7 6 3 11 2 11 -3 0 -6 8 -8 19 -5 41
11 63 -75 26 -103 -8 -6 -15 -16 -15 -23 0 -6 -7 -11 -16 -11 -12 0 -15 -6
-10 -23 7 -29 -30 -68 -66 -71 -21 -1 -24 -6 -25 -41 -3 -81 -11 -89 -67 -64
-30 14 -40 35 -23 49 7 5 25 20 40 32 40 33 46 89 17 151 -23 49 -154 187
-177 187 -7 0 -13 4 -13 8 0 9 -48 32 -116 56 -36 12 -90 20 -117 17 -5 -1 2
-21 16 -46 l25 -44 -31 5 c-18 3 -38 7 -45 10 -18 5 -42 -6 -42 -21 0 -7 15
-36 34 -63 37 -56 26 -59 -36 -10 -40 30 -48 23 -24 -23 14 -27 14 -27 -31
-32 -24 -2 -47 -7 -50 -11 -7 -7 24 -55 51 -78 26 -22 16 -22 -31 -3 -19 8
-37 15 -39 15 -11 0 7 -52 22 -67 16 -17 15 -19 -19 -32 -20 -7 -37 -19 -37
-25 0 -12 72 -66 89 -66 5 0 12 -4 15 -9 3 -5 -15 -8 -41 -7 -25 0 -48 -4 -50
-9 -5 -15 50 -45 81 -45 37 0 32 -11 -24 -53 -55 -41 -79 -74 -58 -82 27 -10
61 -11 104 -5 24 4 44 4 44 0 0 -11 -59 -50 -107 -71 -78 -33 -6 -60 78 -29
l47 17 -15 -36 c-8 -20 -19 -40 -23 -46 -4 -5 -17 -40 -29 -78 -19 -63 -19
-97 -1 -97 16 0 126 88 168 134 32 35 42 41 37 24 -19 -59 -59 -133 -102 -184
-40 -50 -43 -56 -22 -51 13 4 29 7 35 7 18 0 73 61 105 115 l29 50 1 -87 c1
-49 3 -92 4 -98 1 -5 3 -17 4 -25 0 -8 6 -15 11 -15 14 0 95 126 119 186 l20
49 0 -38 c1 -21 -6 -53 -13 -72 -13 -29 -13 -35 -1 -35 19 0 51 44 66 88 13
42 79 122 79 96 0 -22 -20 -57 -42 -72 -10 -7 -16 -18 -12 -23 3 -5 0 -17 -7
-25 -6 -8 -9 -17 -5 -21 3 -3 -3 -12 -14 -20 -11 -8 -20 -20 -20 -28 0 -7 -6
-15 -12 -18 -25 -9 11 -32 55 -36 5 -1 -3 -15 -17 -32 -14 -17 -26 -34 -26
-38 0 -4 -12 -13 -26 -19 -14 -7 -23 -16 -19 -21 3 -5 -4 -16 -15 -24 -11 -7
-17 -17 -13 -21 4 -3 -2 -13 -13 -21 -10 -8 -14 -15 -9 -15 6 -1 2 -5 -8 -9
-18 -7 -94 1 -148 14 -21 5 -32 1 -53 -21 -29 -32 -33 -56 -12 -73 11 -10 16
-8 24 5 5 10 18 18 28 19 11 1 29 5 42 9 13 4 22 3 22 -3 0 -6 -18 -15 -39
-21 -21 -5 -42 -17 -45 -26 -13 -33 -6 -73 15 -88 26 -18 55 -11 39 9 -8 10
-3 21 20 45 17 18 34 29 38 25 4 -3 -1 -11 -10 -16 -35 -19 -40 -45 -17 -83
21 -36 60 -49 74 -26 3 6 1 10 -5 10 -24 0 -6 71 26 106 18 19 36 34 41 34 21
-1 36 -21 37 -49 1 -17 8 -33 16 -36 27 -11 70 64 57 99 -3 8 -19 17 -36 21
-17 4 -31 10 -31 15 0 4 34 49 75 99 73 88 77 91 98 76 28 -20 37 -19 37 4 0
11 5 21 10 23 6 2 13 24 15 50 6 56 18 90 38 106 13 11 14 6 10 -35 -3 -27
-14 -68 -24 -92 -24 -54 -24 -51 5 -51 23 0 24 -2 14 -30 -12 -35 -43 -60 -75
-60 -43 0 -21 -66 24 -73 35 -5 36 -13 7 -36 -42 -33 -76 -23 -76 23 0 29 -14
33 -45 11 -30 -21 -39 -69 -19 -100 13 -20 14 -27 2 -49 -7 -15 -11 -37 -9
-50 13 -68 98 -81 183 -28 l50 31 1 -37 c1 -69 19 -122 40 -122 17 0 36 59 35
111 -1 27 2 49 5 49 4 0 17 -8 30 -19 59 -45 149 -51 182 -10 21 26 22 72 2
89 -13 11 -13 15 0 33 22 31 18 68 -9 100 -27 32 -61 37 -53 8 12 -49 -45 -69
-83 -28 l-21 22 25 3 c53 7 72 76 22 78 -32 1 -62 29 -71 65 -6 24 -4 26 19
24 l25 -3 -25 49 c-26 52 -44 146 -25 134 18 -11 39 -59 46 -105 4 -25 11 -46
16 -48 5 -2 9 -12 9 -23 0 -22 17 -24 43 -4 17 12 22 10 50 -23 18 -20 34 -39
37 -42 45 -45 90 -103 85 -110 -3 -6 -15 -10 -26 -10 -11 0 -24 -11 -31 -25
-9 -20 -8 -31 8 -60 22 -42 61 -50 63 -12 1 50 4 57 28 57 45 0 109 -97 82
-124 -15 -16 -10 -26 14 -26 32 0 42 10 58 53 13 36 12 40 -5 53 -10 7 -24 15
-30 17 -6 2 -8 8 -4 12 4 4 21 -3 37 -16 22 -18 29 -30 26 -46 -4 -18 -1 -23
13 -23 29 0 50 31 45 65 -6 40 -17 52 -60 60 -25 4 -32 10 -25 17 6 6 16 7 24
2 7 -5 24 -9 38 -9 15 0 24 -6 22 -14 -1 -7 5 -11 15 -9 26 5 27 33 2 67 -28
38 -40 43 -73 26 -35 -18 -142 -24 -139 -8 2 6 -6 15 -17 18 -11 4 -17 12 -13
21 3 7 0 14 -6 14 -6 0 -16 11 -21 25 -5 14 -15 25 -22 25 -7 0 -25 15 -39 33
-40 51 -41 55 -13 54 35 0 49 16 30 35 -8 9 -13 18 -10 20 2 3 -5 13 -16 23
-11 10 -20 24 -20 32 0 7 -4 13 -10 13 -5 0 -7 6 -4 14 3 7 -9 27 -25 44 -17
17 -31 40 -31 52 0 19 4 17 35 -15 18 -20 42 -57 51 -81 16 -41 54 -84 76 -84
5 0 1 14 -8 32 -9 17 -18 52 -20 77 l-5 46 20 -42 c25 -54 105 -178 121 -188
22 -13 28 16 26 117 -1 81 1 96 10 81 75 -113 109 -143 158 -143 26 0 26 0
-14 42 -40 43 -101 141 -115 186 -6 20 1 16 37 -18 59 -58 139 -118 163 -122
16 -2 20 3 21 27 0 33 -38 134 -69 178 -23 34 -16 44 18 29 33 -15 108 -15
123 0 9 9 -1 17 -42 33 -52 21 -118 64 -100 66 5 0 42 0 82 0 39 1 72 2 72 4
0 19 -28 55 -58 75 -20 14 -46 33 -56 43 -19 17 -19 17 6 17 40 0 75 16 88 40
11 21 10 21 -47 16 l-58 -6 31 18 c87 49 104 84 45 97 -17 4 -31 8 -31 11 0 2
9 18 19 36 25 40 18 52 -19 33 -49 -25 -53 -17 -16 27 44 51 35 65 -41 67 -20
1 -21 4 -13 27 19 48 12 59 -17 29 -15 -15 -41 -34 -57 -42 l-29 -15 31 44
c47 68 51 107 8 99 -5 -1 -27 -4 -48 -7 l-39 -6 21 34 c30 50 27 62 -17 53
-21 -4 -58 -14 -83 -22 -140 -48 -310 -227 -310 -327 0 -42 34 -94 65 -102 14
-3 25 -12 25 -20 0 -24 -39 -54 -70 -54 -29 0 -38 16 -31 54 1 5 -6 24 -16 43
-14 26 -15 39 -7 65 6 18 8 78 6 133 -2 55 -4 121 -4 148 -1 37 -4 47 -18 47
-13 0 -16 6 -12 25 3 18 0 25 -12 25 -20 0 -20 9 0 38 8 12 13 22 9 22 -3 0 2
16 10 37 8 20 13 38 10 41 -3 3 -22 -1 -44 -8 -37 -12 -41 -11 -73 14 -19 14
-37 26 -40 26 -2 0 -17 -13 -32 -29z m-86 -291 c0 -5 -2 -10 -4 -10 -2 0 -12
-3 -20 -6 -12 -5 -15 -2 -10 10 7 17 34 22 34 6z m353 -1376 c37 4 38 4 21
-15 -9 -10 -28 -19 -41 -19 -28 0 -70 25 -83 50 -8 16 -6 16 28 -2 25 -13 49
-18 75 -14z m-294 5 c-24 -36 -65 -54 -95 -44 -43 15 -38 30 10 31 24 0 54 8
67 17 31 22 34 21 18 -4z"/>
</g>
</svg>
